<svg width="64" height="64" viewBox="0 0 64 64" fill="none" xmlns="http://www.w3.org/2000/svg">
  <!-- Gradient Background -->
  <rect width="64" height="64" rx="12" fill="url(#paint0_linear)" />
  
  <!-- Letter P -->
  <path d="M24 44V20H37.6C39.3333 20 40.8333 20.3333 42.1 21C43.3667 21.6667 44.3333 22.5667 45 23.7C45.6667 24.8333 46 26.1 46 27.5C46 28.9 45.6667 30.1667 45 31.3C44.3333 32.4333 43.3667 33.3333 42.1 34C40.8333 34.6667 39.3333 35 37.6 35H27.5V44H24Z" fill="white"/>
  <path d="M27.5 32H37.1C38.2333 32 39.1667 31.8 39.9 31.4C40.6333 31 41.1667 30.4333 41.5 29.7C41.8333 28.9667 42 28.1333 42 27.2C42 26.2667 41.8333 25.4333 41.5 24.7C41.1667 23.9667 40.6333 23.4 39.9 23C39.1667 22.6 38.2333 22.4 37.1 22.4H27.5V32Z" fill="url(#paint1_linear)"/>
  
  <!-- Decorative elements -->
  <circle cx="14" cy="14" r="4" fill="white" fill-opacity="0.3"/>
  <circle cx="50" cy="48" r="6" fill="white" fill-opacity="0.2"/>
  
  <!-- Definitions for the gradients -->
  <defs>
    <linearGradient id="paint0_linear" x1="0" y1="0" x2="64" y2="64" gradientUnits="userSpaceOnUse">
      <stop stop-color="#4F46E5"/>
      <stop offset="1" stop-color="#F43F5E"/>
    </linearGradient>
    <linearGradient id="paint1_linear" x1="27.5" y1="27.5" x2="42" y2="27.5" gradientUnits="userSpaceOnUse">
      <stop stop-color="#4F46E5"/>
      <stop offset="1" stop-color="#F43F5E"/>
    </linearGradient>
  </defs>
</svg>
