<svg xmlns="http://www.w3.org/2000/svg" viewBox="0 0 384 512"><path fill="#0ACF83" d="M277.33 344c36.86 0 66.67-29.81 66.67-66.67s-29.81-66.67-66.67-66.67H277.33v133.34z"/><path fill="#A259FF" d="M277.33 210.67c36.86 0 66.67-29.81 66.67-66.67s-29.81-66.67-66.67-66.67H277.33v133.34z"/><path fill="#F24E1E" d="M144 344c0 36.86 29.81 66.67 66.67 66.67 36.86 0 66.67-29.81 66.67-66.67V210.67H144V344z"/><path fill="#FF7262" d="M144 77.33c0 36.86 29.81 66.67 66.67 66.67h66.67V10.67H210.67c-36.86 0-66.67 29.81-66.67 66.66z"/><path fill="#1ABCFE" d="M144 210.67c0 36.86 29.81 66.67 66.67 66.67 36.86 0 66.67-29.81 66.67-66.67 0-36.86-29.81-66.67-66.67-66.67-36.86 0-66.67 29.81-66.67 66.67z"/></svg> 