<svg xmlns="http://www.w3.org/2000/svg" viewBox="0 0 500 500"><path fill="#1A73E8" d="M250 0C111.93 0 0 111.93 0 250s111.93 250 250 250 250-111.93 250-250S388.07 0 250 0zm10.5 109c25.09 0 45.5 20.41 45.5 45.5S285.59 200 260.5 200 215 179.59 215 154.5s20.41-45.5 45.5-45.5zm-75 27c19.33 0 35 15.67 35 35s-15.67 35-35 35-35-15.67-35-35 15.67-35 35-35zm-66 62c16.57 0 30 13.43 30 30s-13.43 30-30 30-30-13.43-30-30 13.43-30 30-30zm15 80c11.05 0 20 8.95 20 20s-8.95 20-20 20-20-8.95-20-20 8.95-20 20-20zm52 58c9.94 0 18 8.06 18 18s-8.06 18-18 18-18-8.06-18-18 8.06-18 18-18zm71 30c7.18 0 13 5.82 13 13s-5.82 13-13 13-13-5.82-13-13 5.82-13 13-13zm74-12c6.63 0 12 5.37 12 12s-5.37 12-12 12-12-5.37-12-12 5.37-12 12-12zm63-46c6.08 0 11 4.92 11 11s-4.92 11-11 11-11-4.92-11-11 4.92-11 11-11zm28-77c8.84 0 16 7.16 16 16s-7.16 16-16 16-16-7.16-16-16 7.16-16 16-16zm-8-88c14.36 0 26 11.64 26 26s-11.64 26-26 26-26-11.64-26-26 11.64-26 26-26z"/></svg> 