<svg xmlns="http://www.w3.org/2000/svg" viewBox="0 0 512 512"><path fill="#007ACC" d="M383.973 35.496L304.696 114.773 149.399 48.426 119.512 68.436 259.621 175.968 119.512 283.5 149.399 303.509 304.696 237.163 383.973 316.44 432.488 296.4V76.44L383.973 35.496ZM119.512 175.968H40.012V283.5H119.512V175.968Z"/><path fill="#1F9CF0" d="M382.601 31.55L300.737 115.837 142.673 48.426H138.797L123.362 65.24L115.638 71.18V289.44L123.362 295.38L138.797 311.034H142.673L300.737 244.105 382.601 328.392 428.612 301.113V58.889L382.601 31.55ZM144.586 273.876L58.299 215.991V143.95L144.586 86.066V273.876Z"/><path fill="#007ACC" d="M119.512 175.968H40.012V283.5H119.512V175.968Z"/></svg> 